<svg width="188" height="55" viewBox="0 0 188 55" fill="none" xmlns="http://www.w3.org/2000/svg">
<rect x="0.5" y="0.579834" width="187" height="54" rx="27" fill="#D3E97A"/>
<path d="M30.492 33.8198C29.34 33.8198 28.3533 33.5692 27.532 33.0678C26.7107 32.5612 26.0787 31.8572 25.636 30.9558C25.1987 30.0545 24.98 29.0092 24.98 27.8198C24.98 26.6305 25.1987 25.5852 25.636 24.6838C26.0787 23.7825 26.7107 23.0812 27.532 22.5798C28.3533 22.0732 29.34 21.8198 30.492 21.8198C31.82 21.8198 32.9267 22.1532 33.812 22.8198C34.6973 23.4812 35.3187 24.3745 35.676 25.4998L33.732 26.0358C33.508 25.2838 33.1267 24.6972 32.588 24.2758C32.0493 23.8492 31.3507 23.6358 30.492 23.6358C29.7187 23.6358 29.0733 23.8092 28.556 24.1558C28.044 24.5025 27.6573 24.9905 27.396 25.6198C27.14 26.2438 27.0093 26.9772 27.004 27.8198C27.004 28.6625 27.132 29.3985 27.388 30.0278C27.6493 30.6518 28.0387 31.1372 28.556 31.4838C29.0733 31.8305 29.7187 32.0038 30.492 32.0038C31.3507 32.0038 32.0493 31.7905 32.588 31.3638C33.1267 30.9372 33.508 30.3505 33.732 29.6038L35.676 30.1398C35.3187 31.2652 34.6973 32.1612 33.812 32.8278C32.9267 33.4892 31.82 33.8198 30.492 33.8198ZM42.3045 33.8198C41.1525 33.8198 40.1658 33.5692 39.3445 33.0678C38.5232 32.5612 37.8912 31.8572 37.4485 30.9558C37.0112 30.0545 36.7925 29.0092 36.7925 27.8198C36.7925 26.6305 37.0112 25.5852 37.4485 24.6838C37.8912 23.7825 38.5232 23.0812 39.3445 22.5798C40.1658 22.0732 41.1525 21.8198 42.3045 21.8198C43.4565 21.8198 44.4432 22.0732 45.2645 22.5798C46.0912 23.0812 46.7232 23.7825 47.1605 24.6838C47.6032 25.5852 47.8245 26.6305 47.8245 27.8198C47.8245 29.0092 47.6032 30.0545 47.1605 30.9558C46.7232 31.8572 46.0912 32.5612 45.2645 33.0678C44.4432 33.5692 43.4565 33.8198 42.3045 33.8198ZM42.3045 32.0038C43.0778 32.0092 43.7205 31.8385 44.2325 31.4918C44.7498 31.1452 45.1365 30.6572 45.3925 30.0278C45.6538 29.3985 45.7845 28.6625 45.7845 27.8198C45.7845 26.9772 45.6538 26.2465 45.3925 25.6278C45.1365 25.0038 44.7498 24.5185 44.2325 24.1718C43.7205 23.8252 43.0778 23.6465 42.3045 23.6358C41.5312 23.6305 40.8885 23.8012 40.3765 24.1478C39.8645 24.4945 39.4778 24.9825 39.2165 25.6118C38.9605 26.2412 38.8325 26.9772 38.8325 27.8198C38.8325 28.6625 38.9605 29.3958 39.2165 30.0198C39.4725 30.6385 39.8565 31.1212 40.3685 31.4678C40.8858 31.8145 41.5312 31.9932 42.3045 32.0038ZM49.4169 33.5798V22.0598H51.3689L56.7129 30.1798V22.0598H58.6649V33.5798H56.7129L51.3689 25.4598V33.5798H49.4169ZM63.6693 33.5798V23.8678H59.9413V22.0598H69.3253V23.8678H65.5973V33.5798H63.6693ZM69.4919 33.5798L73.1239 22.0598H75.9479L79.5799 33.5798H77.5959L74.2999 23.2438H74.7319L71.4759 33.5798H69.4919ZM71.5159 31.0838V29.2838H77.5639V31.0838H71.5159ZM85.5858 33.8198C84.4338 33.8198 83.4471 33.5692 82.6258 33.0678C81.8044 32.5612 81.1724 31.8572 80.7298 30.9558C80.2924 30.0545 80.0738 29.0092 80.0738 27.8198C80.0738 26.6305 80.2924 25.5852 80.7298 24.6838C81.1724 23.7825 81.8044 23.0812 82.6258 22.5798C83.4471 22.0732 84.4338 21.8198 85.5858 21.8198C86.9138 21.8198 88.0204 22.1532 88.9058 22.8198C89.7911 23.4812 90.4124 24.3745 90.7698 25.4998L88.8258 26.0358C88.6018 25.2838 88.2204 24.6972 87.6818 24.2758C87.1431 23.8492 86.4444 23.6358 85.5858 23.6358C84.8124 23.6358 84.1671 23.8092 83.6498 24.1558C83.1378 24.5025 82.7511 24.9905 82.4898 25.6198C82.2338 26.2438 82.1031 26.9772 82.0978 27.8198C82.0978 28.6625 82.2258 29.3985 82.4818 30.0278C82.7431 30.6518 83.1324 31.1372 83.6498 31.4838C84.1671 31.8305 84.8124 32.0038 85.5858 32.0038C86.4444 32.0038 87.1431 31.7905 87.6818 31.3638C88.2204 30.9372 88.6018 30.3505 88.8258 29.6038L90.7698 30.1398C90.4124 31.2652 89.7911 32.1612 88.9058 32.8278C88.0204 33.4892 86.9138 33.8198 85.5858 33.8198ZM95.2943 33.5798V23.8678H91.5663V22.0598H100.95V23.8678H97.2223V33.5798H95.2943ZM104.948 33.5798V22.0598H106.684L110.668 30.2198L114.652 22.0598H116.388V33.5798H114.588V26.1958L111.052 33.5798H110.284L106.756 26.1958V33.5798H104.948ZM118.636 33.5798V22.0598H126.076V23.8678H120.564V26.7078H125.116V28.5158H120.564V31.7718H126.076V33.5798H118.636Z" fill="#0A0A0A"/>
<circle cx="160.5" cy="27.5798" r="5" fill="#0A0A0A"/>
</svg>
