<svg width="32" height="32" viewBox="0 0 32 32" fill="none" xmlns="http://www.w3.org/2000/svg">
<path fill-rule="evenodd" clip-rule="evenodd" d="M16.0347 2.6665C8.68933 2.6665 2.73599 8.61984 2.73599 15.9652C2.73599 21.8398 6.54533 26.8252 11.8307 28.5852C12.496 28.7052 12.736 28.2958 12.736 27.9438C12.736 27.6278 12.7253 26.7905 12.7213 25.6825C9.02133 26.4852 8.23999 23.8985 8.23999 23.8985C7.63733 22.3625 6.76399 21.9532 6.76399 21.9532C5.55733 21.1278 6.85599 21.1465 6.85599 21.1465C8.19199 21.2398 8.89199 22.5172 8.89199 22.5172C10.0787 24.5492 12.0067 23.9625 12.7613 23.6225C12.8827 22.7625 13.2293 22.1758 13.608 21.8438C10.656 21.5092 7.55199 20.3678 7.55199 15.2705C7.55199 13.8212 8.07066 12.6318 8.91733 11.7038C8.78266 11.3665 8.32266 10.0132 9.04933 8.18384C9.04933 8.18384 10.1653 7.82517 12.7053 9.54517C13.7901 9.25007 14.9091 9.09943 16.0333 9.09717C17.1576 9.099 18.2766 9.24964 19.3613 9.54517C21.9027 7.82384 23.0173 8.18384 23.0173 8.18384C23.744 10.0132 23.288 11.3665 23.1493 11.7038C24.0027 12.6318 24.5147 13.8198 24.5147 15.2705C24.5147 20.3812 21.408 21.5038 18.4453 21.8332C18.9187 22.2438 19.3453 23.0545 19.3453 24.2945C19.3453 26.0732 19.3293 27.5078 19.3293 27.9438C19.3293 28.2998 19.5667 28.7132 20.2453 28.5825C25.528 26.8198 29.3333 21.8385 29.3333 15.9652C29.3333 8.61984 23.38 2.6665 16.0347 2.6665Z" fill="#D3E97A"/>
</svg>
