<svg width="55" height="55" viewBox="0 0 55 55" fill="none" xmlns="http://www.w3.org/2000/svg">
<rect x="0.5" y="0.579834" width="54" height="54" rx="27" fill="#222222"/>
<path d="M19.8983 22.3767C21.2074 22.3767 22.2686 21.3154 22.2686 20.0063C22.2686 18.6972 21.2074 17.636 19.8983 17.636C18.5892 17.636 17.5279 18.6972 17.5279 20.0063C17.5279 21.3154 18.5892 22.3767 19.8983 22.3767Z" fill="#D3E97A"/>
<path d="M24.5067 24.1727V37.3232H28.5898V30.82C28.5898 29.104 28.9127 27.4422 31.0403 27.4422C33.1387 27.4422 33.1647 29.4041 33.1647 30.9283V37.3243H37.25V30.1126C37.25 26.5701 36.4873 23.8477 32.3468 23.8477C30.3589 23.8477 29.0264 24.9386 28.4815 25.971H28.4262V24.1727H24.5067ZM17.8529 24.1727H21.9425V37.3232H17.8529V24.1727Z" fill="#D3E97A"/>
</svg>
