<svg width="55" height="55" viewBox="0 0 55 55" fill="none" xmlns="http://www.w3.org/2000/svg">
<rect x="0.5" y="0.579834" width="54" height="54" rx="27" fill="#222222"/>
<path fill-rule="evenodd" clip-rule="evenodd" d="M27.5282 16.7466C21.5601 16.7466 16.723 21.5837 16.723 27.5518C16.723 32.3249 19.8181 36.3755 24.1124 37.8055C24.653 37.903 24.848 37.5704 24.848 37.2844C24.848 37.0277 24.8394 36.3473 24.8361 35.4471C21.8299 36.0993 21.195 33.9976 21.195 33.9976C20.7054 32.7496 19.9958 32.417 19.9958 32.417C19.0154 31.7464 20.0705 31.7616 20.0705 31.7616C21.156 31.8374 21.7248 32.8753 21.7248 32.8753C22.6889 34.5263 24.2554 34.0496 24.8686 33.7733C24.9672 33.0746 25.2489 32.5979 25.5565 32.3282C23.158 32.0563 20.636 31.1289 20.636 26.9873C20.636 25.8098 21.0574 24.8434 21.7454 24.0894C21.6359 23.8153 21.2622 22.7158 21.8526 21.2294C21.8526 21.2294 22.7594 20.938 24.8231 22.3355C25.7045 22.0957 26.6137 21.9733 27.5271 21.9715C28.4406 21.973 29.3498 22.0954 30.2311 22.3355C32.2959 20.9369 33.2016 21.2294 33.2016 21.2294C33.792 22.7158 33.4215 23.8153 33.3089 24.0894C34.0022 24.8434 34.4182 25.8087 34.4182 26.9873C34.4182 31.1398 31.894 32.0519 29.4869 32.3195C29.8714 32.6532 30.2181 33.3118 30.2181 34.3193C30.2181 35.7645 30.2051 36.9302 30.2051 37.2844C30.2051 37.5737 30.3979 37.9095 30.9494 37.8033C35.2415 36.3712 38.3334 32.3238 38.3334 27.5518C38.3334 21.5837 33.4963 16.7466 27.5282 16.7466Z" fill="#D3E97A"/>
</svg>
